<<<<<<< HEAD
<<<<<<< HEAD
<mxfile host="app.diagrams.net" modified="2022-04-04T14:30:30.165Z" agent="5.0 (Macintosh; Intel Mac OS X 10_15_7) AppleWebKit/537.36 (KHTML, like Gecko) Chrome/99.0.4844.83 Safari/537.36" etag="dkq884lmBf6AHjBGZJTJ" version="17.2.1" type="github">
  <diagram id="C5RBs43oDa-KdzZeNtuy" name="Page-1">
    <mxGraphModel dx="890" dy="592" grid="1" gridSize="10" guides="1" tooltips="1" connect="1" arrows="1" fold="1" page="1" pageScale="1" pageWidth="827" pageHeight="1169" math="0" shadow="0">
      <root>
        <mxCell id="WIyWlLk6GJQsqaUBKTNV-0" />
        <mxCell id="WIyWlLk6GJQsqaUBKTNV-1" parent="WIyWlLk6GJQsqaUBKTNV-0" />
        <mxCell id="qf0AOb2fYSptfdAoQwgB-2" style="edgeStyle=orthogonalEdgeStyle;rounded=0;orthogonalLoop=1;jettySize=auto;html=1;exitX=0.5;exitY=1;exitDx=0;exitDy=0;" edge="1" parent="WIyWlLk6GJQsqaUBKTNV-1" source="qf0AOb2fYSptfdAoQwgB-0" target="qf0AOb2fYSptfdAoQwgB-3">
          <mxGeometry relative="1" as="geometry">
            <mxPoint x="400" y="120" as="targetPoint" />
          </mxGeometry>
        </mxCell>
        <mxCell id="qf0AOb2fYSptfdAoQwgB-7" style="edgeStyle=orthogonalEdgeStyle;rounded=0;orthogonalLoop=1;jettySize=auto;html=1;" edge="1" parent="WIyWlLk6GJQsqaUBKTNV-1" source="qf0AOb2fYSptfdAoQwgB-0" target="qf0AOb2fYSptfdAoQwgB-6">
          <mxGeometry relative="1" as="geometry" />
        </mxCell>
        <mxCell id="qf0AOb2fYSptfdAoQwgB-8" style="edgeStyle=orthogonalEdgeStyle;rounded=0;orthogonalLoop=1;jettySize=auto;html=1;entryX=0.5;entryY=0;entryDx=0;entryDy=0;" edge="1" parent="WIyWlLk6GJQsqaUBKTNV-1" source="qf0AOb2fYSptfdAoQwgB-0" target="qf0AOb2fYSptfdAoQwgB-5">
          <mxGeometry relative="1" as="geometry" />
        </mxCell>
        <mxCell id="qf0AOb2fYSptfdAoQwgB-0" value="Start" style="rounded=1;whiteSpace=wrap;html=1;strokeColor=#99FF99;fillColor=#99FF33;" vertex="1" parent="WIyWlLk6GJQsqaUBKTNV-1">
          <mxGeometry x="340" y="30" width="120" height="60" as="geometry" />
        </mxCell>
        <mxCell id="qf0AOb2fYSptfdAoQwgB-9" style="edgeStyle=orthogonalEdgeStyle;rounded=0;orthogonalLoop=1;jettySize=auto;html=1;exitX=0.5;exitY=1;exitDx=0;exitDy=0;" edge="1" parent="WIyWlLk6GJQsqaUBKTNV-1" source="qf0AOb2fYSptfdAoQwgB-3" target="qf0AOb2fYSptfdAoQwgB-10">
          <mxGeometry relative="1" as="geometry">
            <mxPoint x="395" y="250" as="targetPoint" />
          </mxGeometry>
        </mxCell>
        <mxCell id="qf0AOb2fYSptfdAoQwgB-3" value="Small pizza $15" style="rhombus;whiteSpace=wrap;html=1;strokeColor=#000000;fillColor=#FFFFFF;" vertex="1" parent="WIyWlLk6GJQsqaUBKTNV-1">
          <mxGeometry x="320" y="120" width="150" height="80" as="geometry" />
        </mxCell>
        <mxCell id="qf0AOb2fYSptfdAoQwgB-14" style="edgeStyle=orthogonalEdgeStyle;rounded=0;orthogonalLoop=1;jettySize=auto;html=1;entryX=0.5;entryY=0;entryDx=0;entryDy=0;" edge="1" parent="WIyWlLk6GJQsqaUBKTNV-1" source="qf0AOb2fYSptfdAoQwgB-5" target="qf0AOb2fYSptfdAoQwgB-13">
          <mxGeometry relative="1" as="geometry" />
        </mxCell>
        <mxCell id="qf0AOb2fYSptfdAoQwgB-5" value="Medium pizza 20$" style="rhombus;whiteSpace=wrap;html=1;strokeColor=#000000;fillColor=#FFFFFF;" vertex="1" parent="WIyWlLk6GJQsqaUBKTNV-1">
          <mxGeometry x="90" y="120" width="150" height="80" as="geometry" />
        </mxCell>
        <mxCell id="qf0AOb2fYSptfdAoQwgB-11" style="edgeStyle=orthogonalEdgeStyle;rounded=0;orthogonalLoop=1;jettySize=auto;html=1;" edge="1" parent="WIyWlLk6GJQsqaUBKTNV-1" source="qf0AOb2fYSptfdAoQwgB-6">
          <mxGeometry relative="1" as="geometry">
            <mxPoint x="635" y="240" as="targetPoint" />
          </mxGeometry>
        </mxCell>
        <mxCell id="qf0AOb2fYSptfdAoQwgB-6" value="Large pizza 25$" style="rhombus;whiteSpace=wrap;html=1;strokeColor=#000000;fillColor=#FFFFFF;" vertex="1" parent="WIyWlLk6GJQsqaUBKTNV-1">
          <mxGeometry x="560" y="120" width="150" height="80" as="geometry" />
        </mxCell>
        <mxCell id="qf0AOb2fYSptfdAoQwgB-17" style="edgeStyle=orthogonalEdgeStyle;rounded=0;orthogonalLoop=1;jettySize=auto;html=1;entryX=0.75;entryY=0;entryDx=0;entryDy=0;" edge="1" parent="WIyWlLk6GJQsqaUBKTNV-1" source="qf0AOb2fYSptfdAoQwgB-10" target="qf0AOb2fYSptfdAoQwgB-16">
          <mxGeometry relative="1" as="geometry" />
        </mxCell>
        <mxCell id="qf0AOb2fYSptfdAoQwgB-10" value="Extra pepperoni&lt;br&gt;+ 2$" style="rounded=1;whiteSpace=wrap;html=1;strokeColor=#000000;fillColor=#FFFFFF;" vertex="1" parent="WIyWlLk6GJQsqaUBKTNV-1">
          <mxGeometry x="335" y="220" width="120" height="60" as="geometry" />
        </mxCell>
        <mxCell id="qf0AOb2fYSptfdAoQwgB-18" style="edgeStyle=orthogonalEdgeStyle;rounded=0;orthogonalLoop=1;jettySize=auto;html=1;entryX=1;entryY=0.5;entryDx=0;entryDy=0;" edge="1" parent="WIyWlLk6GJQsqaUBKTNV-1" source="qf0AOb2fYSptfdAoQwgB-12" target="qf0AOb2fYSptfdAoQwgB-16">
          <mxGeometry relative="1" as="geometry" />
        </mxCell>
        <mxCell id="qf0AOb2fYSptfdAoQwgB-12" value="Extra pepperoni&lt;br&gt;+ 3$" style="rounded=1;whiteSpace=wrap;html=1;strokeColor=#000000;fillColor=#FFFFFF;" vertex="1" parent="WIyWlLk6GJQsqaUBKTNV-1">
          <mxGeometry x="575" y="240" width="120" height="60" as="geometry" />
        </mxCell>
        <mxCell id="qf0AOb2fYSptfdAoQwgB-15" style="edgeStyle=orthogonalEdgeStyle;rounded=0;orthogonalLoop=1;jettySize=auto;html=1;" edge="1" parent="WIyWlLk6GJQsqaUBKTNV-1" source="qf0AOb2fYSptfdAoQwgB-13" target="qf0AOb2fYSptfdAoQwgB-16">
          <mxGeometry relative="1" as="geometry">
            <mxPoint x="320" y="380" as="targetPoint" />
          </mxGeometry>
        </mxCell>
        <mxCell id="qf0AOb2fYSptfdAoQwgB-13" value="Extra pepperoni&lt;br&gt;+ 3$" style="rounded=1;whiteSpace=wrap;html=1;strokeColor=#000000;fillColor=#FFFFFF;" vertex="1" parent="WIyWlLk6GJQsqaUBKTNV-1">
          <mxGeometry x="100" y="260" width="120" height="60" as="geometry" />
        </mxCell>
        <mxCell id="qf0AOb2fYSptfdAoQwgB-16" value="Extra cheese +1$" style="rounded=0;whiteSpace=wrap;html=1;strokeColor=#000000;fillColor=#FFFFFF;" vertex="1" parent="WIyWlLk6GJQsqaUBKTNV-1">
          <mxGeometry x="260" y="350" width="120" height="60" as="geometry" />
        </mxCell>
      </root>
    </mxGraphModel>
  </diagram>
</mxfile>
=======
<mxfile host="app.diagrams.net" modified="2022-03-24T11:50:42.498Z" agent="5.0 (Macintosh; Intel Mac OS X 10_15_7) AppleWebKit/537.36 (KHTML, like Gecko) Chrome/99.0.4844.74 Safari/537.36" version="17.2.1" etag="OmjI5ssDKq6qH4i3e7q2" type="github"><diagram id="C5RBs43oDa-KdzZeNtuy" name="Page-1">7VhZc9MwEP41Hp5gfBQnecRp0wKhU2ihw6NiK7aI7DWynINfzyqWYzsOOYD0yDQv0a43K2m/b4/YcPrx/FKQNPoEAeWGbQZzwzk3bNuybQe/lGZRaLq9bqEIBQu0UaW4Zb+oVppam7OAZg1DCcAlS5tKH5KE+rKhI0LArGk2Bt7cNSUhbSlufcLb2nsWyEjfwu5U+ivKwqjc2XJ7xZOYlMb6JllEApjVVM6F4fQFgCxW8bxPuQpeGZf794t7Ppy4lx8+Zz/JV+/j3fW314WzwSE/WV1B0ET+X9d24XpKeK7jpe8qF2UABeRJQJUT03C8SMYclxYuf1ApFxpwkktAFQgZQQgJ4UOAVNuNIZHazFIyTYJ3CliURxz8SaEaMM71Hihp+y5KmRQwWWGnHKyAUMacjCj3iD8JlwftAweBjxJIqHIVIBn0XarDXVRab8/YagwyyIVPt9jpbJFEhHSbP7ewU+er8VQjd0khplIs0EBQTiSbNslMdE6EK7sKd1xo6A+ggdOiwZDEqcp6oFnySuJqBmKyhRsKl1nEJL1NyTJAMywnTb7UeYBX9UJOskyjuAPkw0CaUiHpfGtYy6euzu2yuGlxVlUKq0z/qFYlzswjAXHWAuI7Fs+XlPyXlHT3TMmyY+3MSU2Wkhh7p6j2dAMskTUTGI8zPNg6dVYb/j2b3rbYdA0tMu3G41nT7ZHI1DmMS9aT55L7hxbhcgyDNxK4CtUq5XkYIlnQXWI4g3btiiAe5dnudtHAWDFoQGLGVbyuKJ9SyXyyoakQzkLc99xHuKnYTB7ckiUhSm4l3S3JivX3iM2m02w2K7nebcwN3aZ7rG7TaWF6g+gV0NkmX+J7Yh3fsddA6D12y+/uU6SfdQl+8I5fVtPdLd/as0xr9phvHPw0CPT0p4DeXjPlyxhwHIbZpzYIlCes8cnL+ag9CYxykSwHAcjlyySwbRKwNzWhB50EykJYA/ULTQlDMM3hKc4B6//8z5zHngPKStGEgKuY2maRYSeGwfos5ljHwwDF6k1tUQqr993OxW8=</diagram></mxfile>
>>>>>>> origin/main
=======
<mxfile host="app.diagrams.net" modified="2022-03-24T11:50:42.498Z" agent="5.0 (Macintosh; Intel Mac OS X 10_15_7) AppleWebKit/537.36 (KHTML, like Gecko) Chrome/99.0.4844.74 Safari/537.36" version="17.2.1" etag="OmjI5ssDKq6qH4i3e7q2" type="github"><diagram id="C5RBs43oDa-KdzZeNtuy" name="Page-1">7VhZc9MwEP41Hp5gfBQnecRp0wKhU2ihw6NiK7aI7DWynINfzyqWYzsOOYD0yDQv0a43K2m/b4/YcPrx/FKQNPoEAeWGbQZzwzk3bNuybQe/lGZRaLq9bqEIBQu0UaW4Zb+oVppam7OAZg1DCcAlS5tKH5KE+rKhI0LArGk2Bt7cNSUhbSlufcLb2nsWyEjfwu5U+ivKwqjc2XJ7xZOYlMb6JllEApjVVM6F4fQFgCxW8bxPuQpeGZf794t7Ppy4lx8+Zz/JV+/j3fW314WzwSE/WV1B0ET+X9d24XpKeK7jpe8qF2UABeRJQJUT03C8SMYclxYuf1ApFxpwkktAFQgZQQgJ4UOAVNuNIZHazFIyTYJ3CliURxz8SaEaMM71Hihp+y5KmRQwWWGnHKyAUMacjCj3iD8JlwftAweBjxJIqHIVIBn0XarDXVRab8/YagwyyIVPt9jpbJFEhHSbP7ewU+er8VQjd0khplIs0EBQTiSbNslMdE6EK7sKd1xo6A+ggdOiwZDEqcp6oFnySuJqBmKyhRsKl1nEJL1NyTJAMywnTb7UeYBX9UJOskyjuAPkw0CaUiHpfGtYy6euzu2yuGlxVlUKq0z/qFYlzswjAXHWAuI7Fs+XlPyXlHT3TMmyY+3MSU2Wkhh7p6j2dAMskTUTGI8zPNg6dVYb/j2b3rbYdA0tMu3G41nT7ZHI1DmMS9aT55L7hxbhcgyDNxK4CtUq5XkYIlnQXWI4g3btiiAe5dnudtHAWDFoQGLGVbyuKJ9SyXyyoakQzkLc99xHuKnYTB7ckiUhSm4l3S3JivX3iM2m02w2K7nebcwN3aZ7rG7TaWF6g+gV0NkmX+J7Yh3fsddA6D12y+/uU6SfdQl+8I5fVtPdLd/as0xr9phvHPw0CPT0p4DeXjPlyxhwHIbZpzYIlCes8cnL+ag9CYxykSwHAcjlyySwbRKwNzWhB50EykJYA/ULTQlDMM3hKc4B6//8z5zHngPKStGEgKuY2maRYSeGwfos5ljHwwDF6k1tUQqr993OxW8=</diagram></mxfile>
>>>>>>> origin/main
